# xmcd CD database file
#
# Track frame offsets:
#	150
#	16307
#	31001
#	49486
#	63807
#	86504
#	101504
#	124374
#	140548
#	155934
#	181453
#	195858
#	208831
#	225814
#	241669
#
# Disc length: 3629 seconds
#
# Revision: 2
# Processed by: cddbd v1.5.2PL0 Copyright (c) Steve Scherf et al.
# Submitted via: CDex 1.51
#
DISCID=c00e2b0f
DTITLE=Various Artist - Saveurs swing
DYEAR=2005
DGENRE=Jazz
TTITLE0=Glenn Miller and His Orchestra - In The Mood
TTITLE1=Sarah Vaughan - Summertime
TTITLE2=Louis Armstrong - Blueberry Hill
TTITLE3=Sidney Bechet - Petite fleur
TTITLE4=Ella Fitzgerald - Good Morning Haertache (live)
TTITLE5=Charlie Parker - Now's The Time
TTITLE6=Lisa Ekdhal - Cry Me A River
TTITLE7=Miles Davis - Time After time
TTITLE8=Billie Holliday (With Ray Ellis and His Orchestra) - I'm A Fool To Want You
TTITLE9=Stan Gets - The Peacods
TTITLE10=Diango Reinhardt - Nuages
TTITLE11=Fats Waller - Everybody Love My Baby
TTITLE12=Duke Ellington - Mood Indigo
TTITLE13=Aretha Franklin - What A Diff'rence A Day Made
TTITLE14=Ray Charles - Georgia On My Mind
EXTD=YEAR: 2005
EXTT0=
EXTT1=
EXTT2=
EXTT3=
EXTT4=
EXTT5=
EXTT6=
EXTT7=
EXTT8=
EXTT9=
EXTT10=
EXTT11=
EXTT12=
EXTT13=
EXTT14=
PLAYORDER=
